HIERARCHY
ROOT reference
{
  OFFSET 0 0 0
  CHANNELS 6 Xposition Yposition Zposition Zrotation Xrotation Yrotation
  JOINT Hips
  {
    OFFSET 0.955001 88.439 111.567
    CHANNELS 6 Xposition Yposition Zposition Zrotation Xrotation Yrotation
    JOINT Spine
    {
      OFFSET 0 8.22665 0
      CHANNELS 6 Xposition Yposition Zposition Zrotation Xrotation Yrotation
      JOINT Spine1
      {
        OFFSET 0 24.451 0
        CHANNELS 6 Xposition Yposition Zposition Zrotation Xrotation Yrotation
        JOINT Neck
        {
          OFFSET 0 24.3506 2.21369
          CHANNELS 6 Xposition Yposition Zposition Zrotation Xrotation Yrotation
          JOINT Head
          {
            OFFSET 0 14.0455 -2.0065
            CHANNELS 6 Xposition Yposition Zposition Zrotation Xrotation Yrotation
            End Site
            {
              OFFSET 0 25.0812 0
            }
          }
        }
        JOINT LeftShoulder
        {
          OFFSET 4.0594 22.2558 -0.272799
          CHANNELS 6 Xposition Yposition Zposition Zrotation Xrotation Yrotation
          JOINT LeftArm
          {
            OFFSET 12.0298 0 0
            CHANNELS 6 Xposition Yposition Zposition Zrotation Xrotation Yrotation
            JOINT LeftForeArm
            {
              OFFSET 31.2689 0 0
              CHANNELS 6 Xposition Yposition Zposition Zrotation Xrotation Yrotation
              JOINT LeftHand
              {
                OFFSET 28.0275 0 0
                CHANNELS 6 Xposition Yposition Zposition Zrotation Xrotation Yrotation
                End Site
                {
                  OFFSET 15.0487 0 0
                }
              }
            }
          }
        }
        JOINT RightShoulder
        {
          OFFSET -3.96464 22.2558 -0.272799
          CHANNELS 6 Xposition Yposition Zposition Zrotation Xrotation Yrotation
          JOINT RightArm
          {
            OFFSET -12.0298 0 0
            CHANNELS 6 Xposition Yposition Zposition Zrotation Xrotation Yrotation
            JOINT RightForeArm
            {
              OFFSET -31.2689 0 0
              CHANNELS 6 Xposition Yposition Zposition Zrotation Xrotation Yrotation
              JOINT RightHand
              {
                OFFSET -28.0275 0 0
                CHANNELS 6 Xposition Yposition Zposition Zrotation Xrotation Yrotation
                End Site
                {
                  OFFSET -15.0487 0 0
                }
              }
            }
          }
        }
      }
    }
    JOINT LeftUpLeg
    {
      OFFSET 10.0325 0 0
      CHANNELS 6 Xposition Yposition Zposition Zrotation Xrotation Yrotation
      JOINT LeftLeg
      {
        OFFSET 0 -38.4033 0
        CHANNELS 6 Xposition Yposition Zposition Zrotation Xrotation Yrotation
        JOINT LeftFoot
        {
          OFFSET 0 -44.1642 0
          CHANNELS 6 Xposition Yposition Zposition Zrotation Xrotation Yrotation
          JOINT LeftToeBase
          {
            OFFSET 0 -6.52112 15.0487
            CHANNELS 6 Xposition Yposition Zposition Zrotation Xrotation Yrotation
            End Site
            {
              OFFSET 0 0 4.013
            }
          }
        }
      }
    }
    JOINT RightUpLeg
    {
      OFFSET -10.0325 0 0
      CHANNELS 6 Xposition Yposition Zposition Zrotation Xrotation Yrotation
      JOINT RightLeg
      {
        OFFSET 0 -38.4033 0
        CHANNELS 6 Xposition Yposition Zposition Zrotation Xrotation Yrotation
        JOINT RightFoot
        {
          OFFSET 0 -44.1642 0
          CHANNELS 6 Xposition Yposition Zposition Zrotation Xrotation Yrotation
          JOINT RightToeBase
          {
            OFFSET 0 -6.52112 15.0487
            CHANNELS 6 Xposition Yposition Zposition Zrotation Xrotation Yrotation
            End Site
            {
              OFFSET 0 0 4.013
            }
          }
        }
      }
    }
  }
}
MOTION
Frames:	10
Frame Time:	0.004
0 0 0 0 0 -0 -10.6543 76.9322 -127.198 4.00718 -8.91362 -11.5791 -3.55271e-015 8.22665 1.42109e-014 -2.20102 16.2559 4.74498 0 24.451 0 -22.1296 20.0898 8.3985 0 24.3506 2.21369 2.28463 19.6157 4.49209 3.55271e-015 14.0455 -2.0065 15.4823 -26.5755 10.4419 4.0594 22.2558 -0.272799 0.632785 7.53751 -13.0279 12.0298 1.42109e-014 0 -49.2867 43.2618 -27.6096 31.2689 0 7.10543e-015 16.9698 -34.8875 -114.031 28.0275 0 0 31.7989 -0.944044 32.4155 -3.96464 22.2558 -0.272799 -7.31154 15.9291 15.9785 -12.0298 0 5.68434e-014 60.6239 51.6002 10.0754 -31.2689 0 0 -27.2372 -43.8023 108.408 -28.0275 -7.10543e-015 -1.42109e-014 14.9072 -11.2472 -19.2971 10.0325 1.42109e-014 0 15.1873 -31.7241 16.9777 0 -38.4033 7.10543e-015 -21.1706 62.0107 6.0552 -8.88178e-016 -44.1642 0 -1.8923 -10.7749 10.4954 1.77636e-015 -6.52112 15.0487 -3.97569e-016 -4.77083e-015 -7.95139e-016 -10.0325 -1.42109e-014 0 -23.4391 -17.1035 -9.42478 1.42109e-014 -38.4033 0 -14.4151 76.9638 13.3908 0 -44.1642 1.42109e-014 6.30762 1.62102 -3.7727 0 -6.52112 15.0487 -3.18055e-015 3.18055e-015 -1.59028e-015 
0 0 0 0 0 -0 -10.4974 76.9614 -126.999 4.11134 -8.848 -11.5118 7.10543e-015 8.22665 0 -2.24946 16.2596 4.78195 0 24.451 0 -22.2264 20.0317 8.43453 7.10543e-015 24.3506 2.21369 2.20619 19.6673 4.47856 -3.55271e-015 14.0455 -2.0065 15.5595 -26.6882 10.4701 4.0594 22.2558 -0.272799 0.657045 7.52437 -13.058 12.0298 0 0 -49.2359 43.224 -27.6324 31.2689 -1.42109e-014 0 16.879 -34.7628 -114.062 28.0275 0 0 32.0294 -0.845435 32.4405 -3.96464 22.2558 -0.272799 -7.31057 15.8854 15.9763 -12.0298 -1.42109e-014 0 60.7379 51.4764 10.033 -31.2689 0 1.42109e-014 -27.3226 -43.8244 108.328 -28.0275 -7.10543e-015 1.42109e-014 15.3369 -11.2461 -19.0896 10.0325 0 -1.42109e-014 15.0713 -31.7162 17.1916 0 -38.4033 0 -21.3389 62.0555 6.5088 0 -44.1642 -1.42109e-014 -1.79206 -10.7464 10.2222 0 -6.52112 15.0487 1.59028e-015 3.18055e-015 -7.95139e-016 -10.0325 0 0 -23.6923 -17.0591 -9.50272 0 -38.4033 -1.42109e-014 -14.5157 76.8663 13.4836 0 -44.1642 0 6.37238 1.90998 -3.70396 0 -6.52112 15.0487 8.82781e-032 3.18055e-015 -1.59028e-015 
0 0 0 0 0 -0 -10.3483 76.9878 -126.801 4.20821 -8.80453 -11.4478 0 8.22665 0 -2.27535 16.2658 4.79258 0 24.451 0 -22.3932 19.9903 8.46346 0 24.3506 2.21369 2.4767 19.6451 4.49546 3.55271e-015 14.0455 -2.0065 15.0722 -26.6503 10.3092 4.0594 22.2558 -0.272799 0.674711 7.5468 -13.0642 12.0298 0 0 -49.1439 43.1132 -27.6705 31.2689 0 0 16.9789 -34.8205 -114.03 28.0275 0 0 31.6746 -0.889377 32.408 -3.96464 22.2558 -0.272799 -7.22831 15.882 16.0171 -12.0298 1.42109e-014 2.84217e-014 60.6905 51.4704 10.0909 -31.2689 0 0 -27.2229 -43.8424 108.379 -28.0275 -1.42109e-014 -1.42109e-014 15.0775 -11.3764 -19.2956 10.0325 0 0 14.9898 -31.7099 17.3494 3.55271e-015 -38.4033 7.10543e-015 -21.6712 62.1161 7.06029 8.88178e-016 -44.1642 0 -1.69683 -10.6444 10.0331 1.77636e-015 -6.52112 15.0487 -3.97569e-016 -1.59028e-015 7.95139e-016 -10.0325 -1.42109e-014 0 -23.9383 -16.9885 -9.52166 0 -38.4033 0 -14.4363 76.796 13.5658 0 -44.1642 1.42109e-014 6.46231 2.12779 -3.79616 1.42109e-014 -6.52112 15.0487 -3.18055e-015 -1.27222e-014 4.77083e-015 
0 0 0 0 0 -0 -10.1863 77.014 -126.599 4.30368 -8.7307 -11.3644 0 8.22665 1.42109e-014 -2.3713 16.2776 4.83035 0 24.451 0 -22.3549 19.9147 8.46486 0 24.3506 2.21369 2.34631 19.633 4.49379 3.55271e-015 14.0455 -2.0065 15.1109 -26.677 10.3209 4.0594 22.2558 -0.272799 0.589873 7.54359 -13.0492 12.0298 -1.42109e-014 0 -49.0455 43.0894 -27.7455 31.2689 -1.42109e-014 0 17.0272 -34.7462 -114.01 28.0275 0 0 31.6602 -0.699176 32.5195 -3.96464 22.2558 -0.272799 -7.29641 15.8957 15.9123 -12.0298 0 0 60.6497 51.5491 10.2256 -31.2689 -2.84217e-014 -1.42109e-014 -27.1502 -43.8443 108.403 -28.0275 -1.42109e-014 -1.42109e-014 14.7858 -11.4504 -19.4634 10.0325 -2.84217e-014 0 14.8647 -31.7427 17.5012 -3.55271e-015 -38.4033 -7.10543e-015 -21.8517 62.1738 7.63474 -4.44089e-016 -44.1642 1.42109e-014 -1.6378 -10.5431 9.62618 -3.55271e-015 -6.52112 15.0487 -9.93923e-016 0 7.95139e-016 -10.0325 0 -1.42109e-014 -24.1804 -16.9462 -9.5517 0 -38.4033 -1.42109e-014 -14.4021 76.7183 13.5202 0 -44.1642 0 6.59782 2.40678 -3.72522 1.42109e-014 -6.52112 15.0487 -6.36111e-015 3.18055e-015 1.59028e-015 
0 0 0 0 0 -0 -10.0339 77.0389 -126.398 4.38872 -8.65099 -11.3012 0 8.22665 0 -2.38586 16.241 4.86692 0 24.451 0 -22.4989 19.8771 8.51867 0 24.3506 2.21369 2.40876 19.7245 4.4837 0 14.0455 -2.0065 15.0341 -26.7916 10.3005 4.0594 22.2558 -0.272799 0.6266 7.53677 -13.0719 12.0298 0 0 -48.8949 43.1748 -27.8692 31.2689 -1.42109e-014 0 17.3558 -35.0602 -113.781 28.0275 7.10543e-015 0 31.05 -0.832787 32.5844 -3.96464 22.2558 -0.272799 -7.2242 15.8984 15.9124 -12.0298 -1.42109e-014 0 60.6467 51.4508 10.2492 -31.2689 0 1.42109e-014 -27.1556 -43.8714 108.406 -28.0275 -7.10543e-015 0 14.6504 -11.4553 -19.4798 10.0325 -1.42109e-014 0 14.7767 -31.7644 17.6924 0 -38.4033 1.42109e-014 -22.0002 62.2545 7.98868 0 -44.1642 -1.42109e-014 -1.54939 -10.4833 9.38769 0 -6.52112 15.0487 -3.97569e-016 1.59028e-015 -0 -10.0325 -1.42109e-014 0 -24.3962 -16.9162 -9.54052 1.42109e-014 -38.4033 0 -14.2765 76.6485 13.4212 0 -44.1642 0 6.69667 2.66857 -3.69572 0 -6.52112 15.0487 -3.18055e-015 3.18055e-015 -0 
0 0 0 0 0 -0 -9.86798 77.0975 -126.145 4.51609 -8.78063 -11.2908 0 8.22665 0 -2.48306 16.3737 4.92698 3.55271e-015 24.451 0 -22.5991 19.8332 8.57111 0 24.3506 2.21369 2.34611 19.7503 4.50312 1.77636e-015 14.0455 -2.0065 14.9836 -26.7717 10.2977 4.0594 22.2558 -0.272799 0.553213 7.55616 -13.0863 12.0298 0 0 -48.8103 43.1366 -27.8714 31.2689 0 0 17.142 -34.8771 -113.897 28.0275 0 2.84217e-014 31.3602 -0.765381 32.7097 -3.96464 22.2558 -0.272799 -7.25455 15.8834 15.888 -12.0298 2.84217e-014 -2.84217e-014 60.6757 51.4757 10.3064 -31.2689 0 -1.42109e-014 -27.0617 -43.8294 108.449 -28.0275 1.42109e-014 -1.42109e-014 14.4196 -11.5081 -19.7225 10.0325 0 0 14.5455 -31.4679 17.7193 -3.55271e-015 -38.4033 7.10543e-015 -22.2554 62.1789 8.44321 -4.44089e-016 -44.1642 1.42109e-014 -1.52229 -10.4558 9.14731 0 -6.52112 15.0487 -5.96354e-016 0 7.95139e-016 -10.0325 0 -1.42109e-014 -24.6881 -16.6794 -9.56904 0 -38.4033 0 -14.7343 76.4855 13.9345 -1.42109e-014 -44.1642 1.42109e-014 6.80313 2.97754 -3.67411 0 -6.52112 15.0487 -3.18055e-015 -9.54166e-015 -3.18055e-015 
0 0 0 0 0 -0 -9.71844 77.1263 -125.94 4.60722 -8.72208 -11.2358 0 8.22665 2.84217e-014 -2.51879 16.3783 4.96828 0 24.451 0 -22.7364 19.7549 8.61594 3.55271e-015 24.3506 2.21369 2.38196 19.81 4.51025 -5.32907e-015 14.0455 -2.0065 14.9684 -26.8462 10.3114 4.0594 22.2558 -0.272799 0.574039 7.56593 -13.0965 12.0298 1.42109e-014 0 -48.7253 43.0116 -27.902 31.2689 1.42109e-014 1.42109e-014 17.0768 -34.7312 -113.976 28.0275 -7.10543e-015 0 31.357 -0.647174 32.7333 -3.96464 22.2558 -0.272799 -7.14742 15.9416 15.8008 -12.0298 0 0 60.5313 51.4996 10.4246 -31.2689 0 0 -27.0708 -43.8649 108.429 -28.0275 1.42109e-014 0 14.2388 -11.5289 -19.7459 10.0325 -2.84217e-014 1.42109e-014 14.4186 -31.4602 17.8213 0 -38.4033 0 -22.3975 62.2252 8.82808 -4.44089e-016 -44.1642 0 -1.55344 -10.389 8.86481 0 -6.52112 15.0487 -8.82781e-032 -3.18055e-015 -1.59028e-015 -10.0325 0 2.84217e-014 -24.911 -16.5973 -9.40955 0 -38.4033 0 -14.0092 76.3987 13.2144 1.42109e-014 -44.1642 1.42109e-014 6.85287 3.20838 -3.54442 1.42109e-014 -6.52112 15.0487 -6.36111e-015 3.18055e-015 -4.77083e-015 
0 0 0 0 0 -0 -9.57574 77.1532 -125.726 4.65663 -8.67256 -11.225 0 8.22665 1.42109e-014 -2.54148 16.339 5.02071 3.55271e-015 24.451 0 -22.7978 19.737 8.67339 7.10543e-015 24.3506 2.21369 2.20612 19.8446 4.53052 -3.55271e-015 14.0455 -2.0065 15.1208 -26.8721 10.3876 4.0594 22.2558 -0.272799 0.485935 7.58165 -13.116 12.0298 -1.42109e-014 0 -48.5659 42.996 -27.9353 31.2689 1.42109e-014 0 17.1144 -34.7754 -113.941 28.0275 -7.10543e-015 0 31.2431 -0.685836 32.7592 -3.96464 22.2558 -0.272799 -7.18859 15.9776 15.7542 -12.0298 0 0 60.4608 51.4739 10.5868 -31.2689 0 -1.42109e-014 -27.054 -43.8606 108.434 -28.0275 -7.10543e-015 0 14.1197 -11.5362 -19.8303 10.0325 2.84217e-014 0 14.3544 -31.4093 17.9621 0 -38.4033 7.10543e-015 -22.5032 62.2973 9.03317 4.44089e-016 -44.1642 1.42109e-014 -1.58874 -10.3856 8.66956 3.55271e-015 -6.52112 15.0487 -1.98785e-016 -1.59028e-015 -0 -10.0325 0 1.42109e-014 -25.065 -16.5277 -9.30983 0 -38.4033 0 -13.8702 76.3349 13.0731 0 -44.1642 0 6.93754 3.37232 -3.45746 0 -6.52112 15.0487 6.36111e-015 -3.18055e-015 -0 
0 0 0 0 0 -0 -9.42715 77.1745 -125.511 4.70629 -8.59479 -11.218 -3.55271e-015 8.22665 -1.42109e-014 -2.55293 16.2708 5.07975 0 24.451 0 -22.8844 19.6985 8.74 -3.55271e-015 24.3506 2.21369 2.12225 19.9491 4.54662 -3.55271e-015 14.0455 -2.0065 15.1873 -26.9484 10.4382 4.0594 22.2558 -0.272799 0.438859 7.58901 -13.153 12.0298 0 -2.84217e-014 -48.4726 42.9598 -27.9495 31.2689 0 0 17.3086 -34.913 -113.825 28.0275 -1.42109e-014 0 30.8949 -0.717313 32.7169 -3.96464 22.2558 -0.272799 -7.16147 15.9559 15.7285 -12.0298 1.42109e-014 0 60.454 51.4989 10.6017 -31.2689 0 2.84217e-014 -27.2125 -43.9649 108.303 -28.0275 1.42109e-014 1.42109e-014 14.2162 -11.5426 -19.8496 10.0325 0 0 14.2767 -31.3796 18.0865 0 -38.4033 0 -22.5538 62.3638 9.17121 8.88178e-016 -44.1642 1.42109e-014 -1.63972 -10.4558 8.47386 0 -6.52112 15.0487 -1.39149e-015 1.59028e-015 7.95139e-016 -10.0325 0 0 -25.2157 -16.5021 -9.26528 -1.42109e-014 -38.4033 0 -13.8651 76.2554 13.1068 0 -44.1642 0 6.96493 3.60975 -3.43209 0 -6.52112 15.0487 -2.64834e-031 -3.18055e-015 -4.77083e-015 
0 0 0 0 0 -0 -9.29043 77.1996 -125.303 4.74605 -8.54455 -11.1852 0 8.22665 1.42109e-014 -2.54163 16.2383 5.10864 0 24.451 0 -23.0048 19.6777 8.78859 0 24.3506 2.21369 2.08366 19.9222 4.57395 -1.77636e-015 14.0455 -2.0065 15.1921 -26.8595 10.455 4.0594 22.2558 -0.272799 0.410587 7.52531 -13.1228 12.0298 -1.42109e-014 2.84217e-014 -48.3543 43.0198 -27.9755 31.2689 0 0 17.1561 -34.8092 -113.898 28.0275 0 0 31.1927 -0.691684 32.776 -3.96464 22.2558 -0.272799 -7.15279 15.954 15.7113 -12.0298 -1.42109e-014 2.84217e-014 60.3332 51.4593 10.7716 -31.2689 0 1.42109e-014 -27.017 -43.8161 108.43 -28.0275 0 0 13.6081 -11.4813 -20.0898 10.0325 -2.84217e-014 1.42109e-014 14.1876 -31.3305 18.0846 -3.55271e-015 -38.4033 -7.10543e-015 -22.7115 62.3902 9.35805 -4.44089e-016 -44.1642 0 -1.73544 -10.486 8.33458 -3.55271e-015 -6.52112 15.0487 3.97569e-016 -1.59028e-015 -0 -10.0325 0 0 -25.3622 -16.4276 -9.18769 0 -38.4033 0 -13.5846 76.1704 12.893 -1.42109e-014 -44.1642 0 7.0161 3.85045 -3.47217 1.42109e-014 -6.52112 15.0487 3.18055e-015 3.18055e-015 1.59028e-015 
